<svg xmlns="http://www.w3.org/2000/svg" xmlns:xlink="http://www.w3.org/1999/xlink" width="500" zoomAndPan="magnify" viewBox="0 0 375 374.999991" height="500" preserveAspectRatio="xMidYMid meet" version="1.0"><defs><clipPath id="e78ba6f7b0"><path d="M 43.738281 30.808594 L 330.988281 30.808594 L 330.988281 344.308594 L 43.738281 344.308594 Z M 43.738281 30.808594 " clip-rule="nonzero"/></clipPath></defs><g clip-path="url(#e78ba6f7b0)"><path fill="#0fafff" d="M 192.679688 110.386719 L 216.203125 110.386719 L 216.203125 133.941406 L 192.679688 133.941406 Z M 158.5 144.613281 L 182.023438 144.613281 L 182.023438 168.167969 L 158.5 168.167969 Z M 192.679688 144.613281 L 216.203125 144.613281 L 216.203125 168.167969 L 192.679688 168.167969 Z M 58.910156 154.570312 C 57.105469 156.382812 55.945312 158.707031 55.597656 161.238281 L 55.574219 161.394531 L 55.523438 161.542969 C 55.214844 162.488281 55.035156 163.464844 54.972656 164.457031 C 54.5625 170.890625 59.488281 176.441406 65.898438 176.867188 C 105.441406 179.441406 142.273438 196.996094 169.332031 225.953125 C 193.175781 251.472656 207.703125 284.113281 210.699219 318.9375 L 210.867188 320.839844 L 181.183594 320.839844 L 181.019531 319.269531 C 178.007812 290.441406 165.191406 263.671875 144.734375 243.183594 C 121.082031 219.496094 89.320312 206.261719 55.863281 206.164062 L 55.457031 206.15625 C 50.144531 206.15625 45.472656 209.773438 44.140625 214.953125 L 44.070312 215.25 L 43.953125 215.832031 L 43.867188 216.414062 L 43.808594 217.011719 L 43.78125 217.589844 L 43.777344 271.566406 C 43.777344 278.039062 49.015625 283.285156 55.476562 283.285156 C 68.570312 283.285156 81.015625 288.449219 90.28125 297.71875 C 99.527344 306.988281 104.691406 319.449219 104.691406 332.5625 C 104.691406 339.03125 109.929688 344.28125 116.390625 344.28125 C 122.851562 344.28125 128.089844 339.03125 128.089844 332.5625 C 128.089844 313.207031 120.488281 294.824219 106.824219 281.144531 C 96.410156 270.71875 83.109375 263.6875 68.625 261.039062 L 67.179688 260.769531 L 67.179688 230.242188 L 69.164062 230.507812 C 91.539062 233.492188 112.234375 243.777344 128.183594 259.753906 C 147.53125 279.125 158.304688 305.160156 158.304688 332.566406 C 158.304688 339.035156 163.539062 344.28125 170.003906 344.28125 L 222.988281 344.28125 C 229.449219 344.28125 234.691406 339.035156 234.691406 332.566406 C 234.691406 286.890625 217.476562 243.375 186.328125 210.039062 C 161.398438 183.351562 128.960938 164.828125 93.265625 157.140625 L 90.117188 156.460938 L 187.351562 59.101562 L 307.511719 179.429688 L 307.511719 320.84375 L 274.703125 320.84375 C 268.257812 320.84375 263 326.117188 263 332.5625 C 263 339.007812 268.261719 344.28125 274.703125 344.28125 L 319.214844 344.28125 C 325.65625 344.28125 330.917969 339.007812 330.917969 332.5625 L 330.917969 174.578125 C 330.917969 171.457031 329.699219 168.496094 327.492188 166.292969 L 195.621094 34.242188 C 193.335938 31.953125 190.347656 30.8125 187.351562 30.808594 C 184.355469 30.808594 181.359375 31.953125 179.074219 34.242188 Z M 60.472656 310.847656 C 69.695312 310.847656 77.171875 318.324219 77.171875 327.558594 C 77.171875 336.800781 69.695312 344.28125 60.472656 344.28125 C 51.25 344.28125 43.777344 336.796875 43.777344 327.558594 C 43.777344 318.328125 51.246094 310.847656 60.472656 310.847656 Z M 158.5 110.386719 L 182.023438 110.386719 L 182.023438 133.941406 L 158.5 133.941406 Z M 158.5 110.386719 " fill-opacity="1" fill-rule="evenodd"/></g></svg>